<?xml version="1.0" encoding="UTF-8"?>
<svg xmlns="http://www.w3.org/2000/svg" xmlns:xlink="http://www.w3.org/1999/xlink" width="18px" height="18px" viewBox="0 0 18 18" version="1.1">
<g id="surface1">
<path style=" stroke:none;fill-rule:nonzero;fill:rgb(6.27451%,61.960784%,95.686275%);fill-opacity:1;" d="M 8.835938 1.5 C 10.796875 1.5 12.414062 2.992188 12.613281 4.90625 L 12.671875 4.90625 C 13.757812 4.90625 15.082031 5.628906 15.527344 7.652344 L 16.117188 12.234375 C 16.332031 13.710938 16.066406 14.898438 15.328125 15.746094 C 14.59375 16.59375 13.433594 17.042969 11.96875 17.042969 L 5.710938 17.042969 C 4.101562 17.042969 2.980469 16.648438 2.285156 15.839844 C 1.585938 15.027344 1.351562 13.808594 1.589844 12.222656 L 2.171875 7.703125 C 2.554688 5.628906 3.953125 4.90625 5.035156 4.90625 C 5.128906 4.042969 5.519531 3.222656 6.136719 2.609375 C 6.84375 1.902344 7.820312 1.5 8.820312 1.5 Z M 12.671875 6.03125 L 5.035156 6.03125 C 4.707031 6.03125 3.601562 6.164062 3.28125 7.875 L 2.703125 12.375 C 2.515625 13.640625 2.660156 14.550781 3.136719 15.105469 C 3.609375 15.652344 4.449219 15.917969 5.710938 15.917969 L 11.96875 15.917969 C 12.757812 15.917969 13.828125 15.761719 14.476562 15.011719 C 14.992188 14.417969 15.167969 13.535156 15.003906 12.386719 L 14.417969 7.847656 C 14.171875 6.726562 13.515625 6.03125 12.671875 6.03125 Z M 11.023438 8.117188 C 11.332031 8.117188 11.601562 8.371094 11.601562 8.679688 C 11.601562 8.992188 11.367188 9.242188 11.058594 9.242188 L 11.023438 9.242188 C 10.710938 9.242188 10.460938 8.992188 10.460938 8.679688 C 10.460938 8.371094 10.710938 8.117188 11.023438 8.117188 Z M 6.652344 8.117188 C 6.960938 8.117188 7.230469 8.371094 7.230469 8.679688 C 7.230469 8.992188 6.996094 9.242188 6.683594 9.242188 L 6.652344 9.242188 C 6.339844 9.242188 6.089844 8.992188 6.089844 8.679688 C 6.089844 8.371094 6.339844 8.117188 6.652344 8.117188 Z M 8.832031 2.625 L 8.820312 2.625 C 8.117188 2.625 7.429688 2.910156 6.929688 3.40625 C 6.523438 3.808594 6.257812 4.339844 6.171875 4.90625 L 11.480469 4.90625 C 11.289062 3.617188 10.175781 2.625 8.832031 2.625 Z M 8.832031 2.625 "/>
</g>
</svg>
